<?xml version="1.0" encoding="UTF-8"?>
<svg version="1.1" xmlns="http://www.w3.org/2000/svg" width="433" height="433">
<path d="M0 0 C7.75305349 5.39471022 12.927156 12.16758263 16.8046875 20.6796875 C18.56200756 23.87481488 20.57188993 26.68394776 22.8046875 29.5546875 C26.81283864 34.84903639 28.8046875 38.85511136 28.8046875 45.6796875 C24.8446875 45.6796875 20.8846875 45.6796875 16.8046875 45.6796875 C16.70027344 46.55882812 16.59585937 47.43796875 16.48828125 48.34375 C14.69187872 57.11019432 8.42231641 63.84971685 1.40234375 69.02734375 C-4.6624382 72.88509227 -10.12727455 74.61860433 -17.2578125 75.2421875 C-22.65349565 75.99313309 -24.81393323 77.8103341 -28.2578125 81.9921875 C-30.7851944 85.44204026 -33.00726954 89.00903619 -35.1953125 92.6796875 C-34.16647949 92.6890332 -33.13764648 92.69837891 -32.07763672 92.70800781 C-28.24175538 92.74803519 -24.40666538 92.81382804 -20.57128906 92.88720703 C-18.91481736 92.91534312 -17.25821323 92.9365942 -15.6015625 92.95068359 C-13.21285574 92.97221641 -10.82572864 93.01891505 -8.4375 93.0703125 C-7.70288544 93.07154114 -6.96827087 93.07276978 -6.21139526 93.07403564 C-0.1692693 93.24417274 3.39095088 95.31226991 7.63671875 99.4765625 C9.30111764 102.61609753 9.32878766 105.40025105 9.4921875 108.9296875 C9.55792969 110.19296875 9.62367188 111.45625 9.69140625 112.7578125 C9.72878906 113.72203125 9.76617187 114.68625 9.8046875 115.6796875 C10.7493689 115.63255615 10.7493689 115.63255615 11.71313477 115.58447266 C14.59744594 115.45889504 17.48118121 115.38145271 20.3671875 115.3046875 C21.35783203 115.25441406 22.34847656 115.20414062 23.36914062 115.15234375 C28.11624531 115.05771708 31.82322449 115.08372585 35.69921875 118.03125 C39.71963947 122.12101951 41.76026446 127.20045933 43.9296875 132.4296875 C44.74290214 134.32112601 45.55799832 136.2117567 46.375 138.1015625 C46.96522949 139.48118164 46.96522949 139.48118164 47.56738281 140.88867188 C49.49206906 145.23022932 51.63174627 149.45803885 53.8046875 153.6796875 C53.84013672 153.0503833 53.87558594 152.4210791 53.91210938 151.77270508 C54.34854816 144.98324211 56.22510873 141.00760005 61.3671875 136.3671875 C65.88013186 133.24284141 67.88217551 133.6796875 73.8046875 133.6796875 C73.8046875 144.5696875 73.8046875 155.4596875 73.8046875 166.6796875 C63.6796875 166.6796875 63.6796875 166.6796875 57.8046875 161.6796875 C60.97542858 169.5985598 60.97542858 169.5985598 64.6171875 177.3046875 C65.8046875 179.6796875 65.8046875 179.6796875 65.8046875 181.6796875 C66.9596875 181.5971875 68.1146875 181.5146875 69.3046875 181.4296875 C80.49572083 181.46504622 91.89066392 184.9335302 100.8046875 191.6796875 C101.64515625 192.30488281 102.485625 192.93007813 103.3515625 193.57421875 C112.10122709 200.71977816 120.00268665 212.3034195 121.8046875 223.6796875 C122.02030708 228.37818869 121.94184283 232.97068779 121.8046875 237.6796875 C113.8846875 238.0096875 105.9646875 238.3396875 97.8046875 238.6796875 C97.8871875 240.9071875 97.9696875 243.1346875 98.0546875 245.4296875 C98.19166138 260.64368977 90.82574888 273.55988483 80.6171875 284.4921875 C67.48842545 296.77467047 51.98508031 303.84369041 34.0546875 303.9296875 C32.99507813 303.9503125 31.93546875 303.9709375 30.84375 303.9921875 C20.13606798 304.04532736 13.88095857 301.50755488 6.01171875 294.09765625 C-1.64862725 285.70517099 -1.1953125 278.14014275 -1.1953125 266.6796875 C-51.0253125 266.6796875 -100.8553125 266.6796875 -152.1953125 266.6796875 C-150.7103125 262.2246875 -150.7103125 262.2246875 -149.1953125 257.6796875 C-148.2053125 254.0496875 -147.2153125 250.4196875 -146.1953125 246.6796875 C-105.9353125 246.6796875 -65.6753125 246.6796875 -24.1953125 246.6796875 C-24.8553125 245.3596875 -25.5153125 244.0396875 -26.1953125 242.6796875 C-27.49965744 242.68634933 -28.80400238 242.69301117 -30.14787292 242.69987488 C-42.43427057 242.76066438 -54.72063774 242.80564983 -67.0071516 242.83512402 C-73.32392324 242.85078632 -79.64057357 242.87203522 -85.95727539 242.90600586 C-92.05213426 242.93857868 -98.14687638 242.95653626 -104.24181557 242.96431923 C-106.56825918 242.96986643 -108.89469634 242.98069861 -111.22109032 242.99687767 C-114.47720575 243.01862391 -117.73283741 243.02165554 -120.98901367 243.02026367 C-121.95286484 243.0310495 -122.916716 243.04183533 -123.90977478 243.052948 C-132.40656996 243.0135923 -132.40656996 243.0135923 -136.1953125 239.6796875 C-137.28333785 235.93960037 -137.78963814 233.80890622 -135.9453125 230.3046875 C-132.95827275 227.53100773 -130.12688256 227.55540608 -126.24092102 227.55943298 C-125.21868439 227.55805832 -124.19644775 227.55668365 -123.14323425 227.55526733 C-122.02258072 227.55886261 -120.90192719 227.56245789 -119.74731445 227.56616211 C-118.56669434 227.56601608 -117.38607422 227.56587006 -116.16967773 227.5657196 C-112.93233808 227.56629726 -109.69504155 227.57131567 -106.4577105 227.57829356 C-103.07444461 227.58454102 -99.69117788 227.585132 -96.3079071 227.58631897 C-89.90125034 227.58942817 -83.49461063 227.59763603 -77.08796138 227.60766846 C-69.79419981 227.61884234 -62.50043744 227.62434327 -55.20666945 227.62936389 C-40.2028743 227.63981897 -25.1990951 227.65741048 -10.1953125 227.6796875 C-9.6418361 225.60415102 -9.1953125 223.83602786 -9.1953125 221.6796875 C-10.45176575 221.68856995 -11.70821899 221.69745239 -13.00274658 221.706604 C-24.83323102 221.78762747 -36.6636593 221.84762303 -48.49435806 221.88693619 C-54.57692258 221.90782684 -60.65926344 221.93617195 -66.74169922 221.98144531 C-72.60962884 222.0248496 -78.4773431 222.04881347 -84.34542084 222.05919647 C-86.58618308 222.06659753 -88.8269333 222.08104974 -91.06760406 222.10260773 C-94.20190571 222.13156908 -97.33531303 222.13564646 -100.46972656 222.13378906 C-101.39977005 222.14817017 -102.32981354 222.16255127 -103.28804016 222.17736816 C-109.55782192 222.13706155 -109.55782192 222.13706155 -112.79925537 219.8114624 C-114.1953125 217.6796875 -114.1953125 217.6796875 -114.2578125 215.1171875 C-112.78343663 211.73479579 -111.58767106 211.1804269 -108.1953125 209.6796875 C-104.66957808 209.25116235 -101.16947366 209.30089494 -97.62182617 209.33911133 C-96.55795685 209.33867325 -95.49408752 209.33823517 -94.39797974 209.33778381 C-90.88622603 209.33987159 -87.37495142 209.36320284 -83.86328125 209.38671875 C-81.42662314 209.39231472 -78.98996165 209.39658482 -76.55329895 209.39958191 C-70.14334782 209.41103048 -63.73360095 209.4404981 -57.32373047 209.47369385 C-50.78160363 209.50439426 -44.23944375 209.51808721 -37.69726562 209.53320312 C-24.86319416 209.56536751 -12.0292642 209.61598674 0.8046875 209.6796875 C1.1346875 208.0296875 1.4646875 206.3796875 1.8046875 204.6796875 C0.25493477 204.68301842 0.25493477 204.68301842 -1.3261261 204.68641663 C-11.05256157 204.70666945 -20.77899277 204.72166999 -30.50544453 204.73149967 C-35.5061614 204.73672304 -40.50686127 204.74381083 -45.50756836 204.75512695 C-50.33157201 204.76597517 -55.1555593 204.77196846 -59.9795742 204.77456474 C-61.82200567 204.77641549 -63.66443622 204.78002942 -65.50686073 204.78541756 C-68.08312557 204.79265361 -70.65932237 204.79367735 -73.2355957 204.79321289 C-74.38358391 204.7986058 -74.38358391 204.7986058 -75.55476379 204.80410767 C-78.70832728 204.79793671 -81.180064 204.68477033 -84.1953125 203.6796875 C-86.1953125 200.6796875 -86.1953125 200.6796875 -86.0078125 197.6171875 C-85.1953125 194.6796875 -85.1953125 194.6796875 -82.1953125 192.6796875 C-80.24881458 192.43359184 -80.24881458 192.43359184 -78.00019836 192.43917847 C-77.14624481 192.43642914 -76.29229126 192.43367981 -75.41246033 192.43084717 C-74.47882156 192.43803772 -73.5451828 192.44522827 -72.58325195 192.45263672 C-71.10492889 192.45219864 -71.10492889 192.45219864 -69.59674072 192.45175171 C-66.333936 192.45314684 -63.07135866 192.46871677 -59.80859375 192.484375 C-57.54843775 192.48810448 -55.28828014 192.49095176 -53.02812195 192.49295044 C-47.07522123 192.50059203 -41.12241788 192.52024509 -35.16955566 192.5423584 C-29.09677447 192.56280547 -23.02397756 192.57194972 -16.95117188 192.58203125 C-5.03250927 192.60349043 6.88608102 192.63763277 18.8046875 192.6796875 C18.4746875 191.6896875 18.1446875 190.6996875 17.8046875 189.6796875 C17.10755646 189.67160065 16.41042542 189.66351379 15.69216919 189.65518188 C9.12923448 189.57731033 2.56650032 189.49004261 -3.99616814 189.39216042 C-7.37028754 189.34216852 -10.74437519 189.29583913 -14.11865234 189.2578125 C-17.99595879 189.21231422 -21.87290302 189.15429471 -25.75 189.09375 C-26.96460907 189.08219879 -28.17921814 189.07064758 -29.43063354 189.05874634 C-30.55164459 189.03887665 -31.67265564 189.01900696 -32.82763672 188.99853516 C-33.81802948 188.98521149 -34.80842224 188.97188782 -35.8288269 188.9581604 C-38.1953125 188.6796875 -38.1953125 188.6796875 -40.1953125 186.6796875 C-39.63975694 182.12413194 -39.63975694 182.12413194 -38.1953125 180.6796875 C-36.35006382 180.58246887 -34.50112807 180.55452728 -32.65332031 180.55371094 C-31.46828918 180.54990417 -30.28325806 180.54609741 -29.06231689 180.54217529 C-27.12494659 180.54063446 -27.12494659 180.54063446 -25.1484375 180.5390625 C-23.13395147 180.52542969 -21.11946513 180.51176728 -19.10499191 180.49635696 C-14.12074451 180.4583129 -9.13675276 180.42706852 -4.15234375 180.42919922 C-0.68841636 180.42998742 2.77462376 180.40657429 6.2383194 180.3673172 C8.19745426 180.35179315 10.15673912 180.36219433 12.11590576 180.37298584 C19.25505279 180.55082018 19.25505279 180.55082018 25.15332031 177.13769531 C25.69827148 176.32655273 26.24322266 175.51541016 26.8046875 174.6796875 C25.32072028 169.90840424 23.42662227 165.46604288 21.328125 160.9453125 C20.65102289 159.4700607 19.97394011 157.99480003 19.296875 156.51953125 C18.23348631 154.21256034 17.16882835 151.90618068 16.10351562 149.60009766 C15.07110553 147.36241981 14.04319152 145.1227177 13.015625 142.8828125 C12.69379242 142.19012268 12.37195984 141.49743286 12.04037476 140.78375244 C9.8046875 135.90568037 9.8046875 135.90568037 9.8046875 133.6796875 C9.25202713 133.69079056 8.69936676 133.70189362 8.12995911 133.71333313 C2.37122785 133.82406019 -3.38720046 133.89940934 -9.14672852 133.9543457 C-11.29529099 133.97947035 -13.44376815 134.01357611 -15.59204102 134.05688477 C-18.68266862 134.11762542 -21.77216513 134.14591794 -24.86328125 134.16796875 C-25.82179489 134.19377518 -26.78030853 134.2195816 -27.76786804 134.24617004 C-32.43906603 134.24812895 -34.49465659 134.22406411 -38.28637695 131.27807617 C-41.0086755 127.57256096 -41.0086755 127.57256096 -41.1953125 124.6796875 C-40.8653125 123.3596875 -40.5353125 122.0396875 -40.1953125 120.6796875 C-47.1253125 120.1846875 -47.1253125 120.1846875 -54.1953125 119.6796875 C-54.8553125 121.3296875 -55.5153125 122.9796875 -56.1953125 124.6796875 C-57.08603465 126.22673124 -58.01626335 127.75156201 -58.98046875 129.25390625 C-59.51091797 130.08599609 -60.04136719 130.91808594 -60.58789062 131.77539062 C-61.13896484 132.63068359 -61.69003906 133.48597656 -62.2578125 134.3671875 C-63.35359944 136.07895689 -64.44868649 137.79117458 -65.54296875 139.50390625 C-66.02773682 140.25760498 -66.51250488 141.01130371 -67.01196289 141.7878418 C-68.22662213 143.66300094 -68.22662213 143.66300094 -69.1953125 145.6796875 C-67.45121094 145.71835937 -67.45121094 145.71835937 -65.671875 145.7578125 C-49.62473216 146.26483123 -34.78172189 148.68679123 -20.1953125 155.6796875 C-19.36 156.05867187 -18.5246875 156.43765625 -17.6640625 156.828125 C-10.72535916 160.09985537 -4.48699912 164.32307288 1.8046875 168.6796875 C1.4746875 169.6696875 1.1446875 170.6596875 0.8046875 171.6796875 C-34.94203524 171.62084883 -70.68869077 171.54633459 -106.43533446 171.45070122 C-110.65244599 171.43943262 -114.86955784 171.42829424 -119.08666992 171.41723633 C-119.92624574 171.41503264 -120.76582156 171.41282896 -121.63083907 171.4105585 C-135.23760765 171.3751548 -148.84437616 171.35030804 -162.45117376 171.32934048 C-176.40574834 171.30760286 -190.36026299 171.27457194 -204.31478661 171.23098594 C-212.93033034 171.20443398 -221.54579934 171.18676476 -230.16138198 171.18034146 C-236.06380941 171.17509838 -241.96614268 171.15891797 -247.8685197 171.13402184 C-251.27746087 171.11996957 -254.68623335 171.11084981 -258.09520531 171.11467934 C-261.7859042 171.11631889 -265.47607542 171.09974542 -269.16670227 171.07841492 C-270.25132022 171.08326249 -271.33593816 171.08811007 -272.45342332 171.09310454 C-273.43823062 171.083648 -274.42303793 171.07419146 -275.43768787 171.06444836 C-276.29016002 171.06254975 -277.14263216 171.06065115 -278.02093679 171.05869502 C-280.70403387 170.59101413 -281.59282356 169.85381251 -283.1953125 167.6796875 C-283.83125351 162.59215942 -283.83125351 162.59215942 -282.03198242 160.01049805 C-279.44489725 158.13595315 -277.6049756 158.33842359 -274.43359375 158.38671875 C-273.31533203 158.39638672 -272.19707031 158.40605469 -271.04492188 158.41601562 C-269.87767578 158.44115234 -268.71042969 158.46628906 -267.5078125 158.4921875 C-266.32896484 158.50572266 -265.15011719 158.51925781 -263.93554688 158.53320312 C-261.02165553 158.56859452 -258.10878943 158.62052257 -255.1953125 158.6796875 C-255.15602631 158.01533188 -255.11674011 157.35097626 -255.07626343 156.66648865 C-254.42728723 147.43017193 -252.93456419 138.3885373 -251.359375 129.27734375 C-251.07637588 127.62498026 -250.79353163 125.97259023 -250.51083374 124.32017517 C-249.92107053 120.88134089 -249.32708204 117.44326734 -248.73046875 114.00561523 C-247.96781499 109.60719194 -247.21957737 105.20644668 -246.47486305 100.80495548 C-245.89686273 97.40220756 -245.30944808 94.00113455 -244.7193718 90.60046196 C-244.4393619 88.97797075 -244.16269137 87.35489944 -243.88948441 85.73124886 C-243.50728537 83.46621728 -243.11198524 81.20384399 -242.71337891 78.94165039 C-242.49211334 77.65658096 -242.27084778 76.37151154 -242.0428772 75.04750061 C-240.97858392 70.8185127 -239.4871685 68.06404325 -236.52563477 64.89045715 C-233.07466557 63.097431 -229.70743954 63.27032709 -225.91015625 63.30737305 C-224.66070724 63.30189705 -224.66070724 63.30189705 -223.38601685 63.29631042 C-220.63474084 63.28820959 -217.88405465 63.30181109 -215.1328125 63.31640625 C-213.21997071 63.31692491 -211.30712838 63.31640697 -209.39428711 63.31489563 C-205.38614948 63.31498533 -201.37821307 63.3254108 -197.37011719 63.34350586 C-192.23186294 63.36619288 -187.09390273 63.36673689 -181.95561218 63.35998821 C-178.00595485 63.35664707 -174.05636458 63.36328109 -170.10671997 63.37311745 C-168.21209056 63.37696722 -166.3174537 63.37811859 -164.42282104 63.3765316 C-161.77522565 63.37616083 -159.12800749 63.38878447 -156.48046875 63.4050293 C-155.69697052 63.40255188 -154.91347229 63.40007446 -154.10623169 63.39752197 C-147.08073961 63.46633414 -147.08073961 63.46633414 -144.1953125 65.6796875 C-142.18875949 68.27416615 -142.19558617 69.68598308 -142.33958435 72.99861145 C-142.61512901 74.93639717 -142.61512901 74.93639717 -142.89624023 76.91333008 C-142.99440001 77.61824239 -143.0925598 78.3231547 -143.19369411 79.04942799 C-144.28604916 86.70835417 -145.61496661 94.32733261 -146.98046875 101.94140625 C-147.2445946 103.43107737 -147.50837616 104.92080958 -147.77183533 106.41059875 C-148.4566554 110.27741079 -149.14635549 114.14333626 -149.83709717 118.00909424 C-150.40144068 121.17221794 -150.96229808 124.33595519 -151.52298832 127.4997282 C-152.68241122 134.04171208 -153.84403095 140.58330883 -155.01196289 147.1237793 C-155.31935143 148.84675484 -155.31935143 148.84675484 -155.63294983 150.60453796 C-156.12614243 153.30144703 -156.65763382 155.9912941 -157.1953125 158.6796875 C-152.9053125 158.6796875 -148.6153125 158.6796875 -144.1953125 158.6796875 C-143.2053125 155.7096875 -143.2053125 155.7096875 -142.1953125 152.6796875 C-141.41067796 151.1401431 -140.57582923 149.62509269 -139.69140625 148.140625 C-139.20188477 147.31788086 -138.71236328 146.49513672 -138.20800781 145.64746094 C-137.68819336 144.7918457 -137.16837891 143.93623047 -136.6328125 143.0546875 C-136.10139648 142.17329102 -135.56998047 141.29189453 -135.02246094 140.38378906 C-130.80608388 133.48127377 -126.26655659 126.98032409 -121.1953125 120.6796875 C-121.98035156 120.65390625 -122.76539063 120.628125 -123.57421875 120.6015625 C-130.19894544 120.24390854 -134.91519913 119.8363725 -140.1953125 115.6796875 C-143.38440133 111.39434938 -143.42777801 108.02026909 -142.91015625 102.92578125 C-139.78366986 93.10212184 -125.83348579 85.8791348 -117.23950195 81.35961914 C-95.99457032 70.72014063 -74.6775421 66.38187168 -51.1953125 63.6796875 C-51.67234619 63.08075684 -52.14937988 62.48182617 -52.64086914 61.86474609 C-53.26856201 61.06891113 -53.89625488 60.27307617 -54.54296875 59.453125 C-55.16437744 58.66856934 -55.78578613 57.88401367 -56.42602539 57.07568359 C-63.36324248 47.68119642 -63.32276123 36.91894204 -62.1953125 25.6796875 C-60.29862853 15.60355389 -54.14583326 7.18412605 -45.8203125 1.3046875 C-44.29731201 0.39758738 -42.75533685 -0.47847811 -41.1953125 -1.3203125 C-40.48246094 -1.7328125 -39.76960937 -2.1453125 -39.03515625 -2.5703125 C-27.08185731 -8.47520117 -11.15803527 -6.71070449 0 0 Z M54.8046875 155.6796875 C55.8046875 157.6796875 55.8046875 157.6796875 55.8046875 157.6796875 Z M35.21875 254.734375 C32.53748499 258.42296609 31.78537842 260.59837903 31.8671875 265.1796875 C33.05014365 269.59605712 33.9694786 271.14844962 37.8046875 273.6796875 C43.94324275 274.77482881 49.60361511 274.15174071 55.01953125 271.015625 C59.54472236 267.62915813 63.38128196 263.23096911 64.8046875 257.6796875 C65.28811363 253.03879662 64.68302737 250.38041019 61.8046875 246.6796875 C51.70916367 240.5624845 41.76146946 246.63813311 35.21875 254.734375 Z " fill="#FF4F5B" transform="translate(311.1953125,67.3203125)"/>
<path d="M0 0 C6.62133912 5.58120539 9.87556329 12.16031835 11.0390625 20.71875 C11.51718655 37.07457702 4.44475035 50.65695029 -6.56640625 62.34375 C-19.45018124 75.1224371 -35.74368705 83.48076991 -54.0859375 84.09375 C-64.77221986 83.75584384 -74.21168809 80.68186645 -81.74609375 72.8671875 C-87.60687634 65.63840897 -89.58600722 58.12728904 -89.3046875 48.890625 C-87.61203296 33.27203991 -79.02751564 19.51838272 -67.27734375 9.41015625 C-48.43620845 -5.42755057 -21.48821878 -15.48974075 0 0 Z M-52.55859375 31.1875 C-56.51977322 35.51279904 -58.1628508 39.86326422 -57.9609375 45.71875 C-56.412942 49.38505514 -54.53871809 51.92985971 -50.9609375 53.71875 C-44.46638036 54.77122764 -39.36171158 53.37047689 -33.9609375 49.71875 C-31.14762372 47.32291349 -31.14762372 47.32291349 -28.9609375 44.71875 C-28.3834375 44.14125 -27.8059375 43.56375 -27.2109375 42.96875 C-25.22305327 39.39055838 -24.85920133 35.78092977 -24.9609375 31.71875 C-26.38296081 27.63043298 -27.63001944 26.88711182 -31.5234375 24.90625 C-39.14773698 22.27240109 -46.9408791 25.79449394 -52.55859375 31.1875 Z " fill="#FF4F5B" transform="translate(148.9609375,285.28125)"/>
<path d="M0 0 C1.24669968 -0.0049926 1.24669968 -0.0049926 2.51858521 -0.01008606 C4.2788233 -0.01515341 6.03907102 -0.01749444 7.79931641 -0.01733398 C10.49007055 -0.01951686 13.18041238 -0.0376644 15.87109375 -0.05664062 C17.58072776 -0.05957532 19.29036373 -0.06155961 21 -0.0625 C22.20642654 -0.07327827 22.20642654 -0.07327827 23.43722534 -0.08427429 C30.75284291 -0.0544248 30.75284291 -0.0544248 33.6328125 2.16796875 C34.5078125 5.10546875 34.5078125 5.10546875 34.6328125 8.16796875 C32.6328125 11.16796875 32.6328125 11.16796875 29.6328125 12.16796875 C26.80286361 12.27714463 23.99828675 12.33201599 21.16796875 12.3359375 C20.33825058 12.3392659 19.50853241 12.3425943 18.65367126 12.34602356 C16.89940953 12.35108436 15.14513817 12.35343215 13.39086914 12.35327148 C10.70898566 12.3554576 8.02751381 12.37362105 5.34570312 12.39257812 C3.64062641 12.3955123 1.93554773 12.39749693 0.23046875 12.3984375 C-0.57067856 12.40562302 -1.37182587 12.41280853 -2.19725037 12.42021179 C-9.47558454 12.39038675 -9.47558454 12.39038675 -12.3671875 10.16796875 C-13.3046875 7.23046875 -13.3046875 7.23046875 -13.3671875 4.16796875 C-9.9192344 -0.59349029 -5.39288278 0.00742433 0 0 Z " fill="#FF4F5B" transform="translate(183.3671875,259.83203125)"/>
<path d="M0 0 C1.18154663 -0.00287018 1.18154663 -0.00287018 2.38696289 -0.00579834 C4.05127278 -0.00715847 5.71559334 -0.00347399 7.37988281 0.00488281 C9.92797669 0.015585 12.47536556 0.00498199 15.0234375 -0.0078125 C16.64062656 -0.00649087 18.25781517 -0.00392842 19.875 0 C21.01884155 -0.00607269 21.01884155 -0.00607269 22.18579102 -0.01226807 C25.97248674 0.02131563 27.70898266 0.1132801 30.9375 2.265625 C31.3125 5.265625 31.3125 5.265625 30.9375 8.265625 C27.18292523 10.76867484 24.22184902 10.55432757 19.875 10.53125 C18.69345337 10.53412018 18.69345337 10.53412018 17.48803711 10.53704834 C15.82372722 10.53840847 14.15940666 10.53472399 12.49511719 10.52636719 C9.94702331 10.515665 7.39963444 10.52626801 4.8515625 10.5390625 C3.23437344 10.53774087 1.61718483 10.53517842 0 10.53125 C-0.76256104 10.53529846 -1.52512207 10.53934692 -2.31079102 10.54351807 C-6.09748674 10.50993437 -7.83398266 10.4179699 -11.0625 8.265625 C-11.4375 5.265625 -11.4375 5.265625 -11.0625 2.265625 C-7.30792523 -0.23742484 -4.34684902 -0.02307757 0 0 Z " fill="#FF4F5B" transform="translate(11.0625,207.734375)"/>
<path d="M0 0 C1.2538147 -0.0049926 1.2538147 -0.0049926 2.53295898 -0.01008606 C4.30158945 -0.01515232 6.07022948 -0.01749448 7.83886719 -0.01733398 C10.55159135 -0.01952245 13.26391023 -0.03768652 15.9765625 -0.05664062 C17.69270694 -0.05957415 19.40885331 -0.06155922 21.125 -0.0625 C21.93960693 -0.06968552 22.75421387 -0.07687103 23.59350586 -0.08427429 C29.33367354 -0.06085771 29.33367354 -0.06085771 31.5625 2.16796875 C31.8125 4.66796875 31.8125 4.66796875 31.5625 7.16796875 C28.93418489 9.79628386 27.02041705 9.42744243 23.44104004 9.47151184 C22.18631897 9.47014473 22.18631897 9.47014473 20.90625 9.46875 C19.61914124 9.47517769 19.61914124 9.47517769 18.30603027 9.48173523 C16.49032474 9.48748283 14.67459618 9.48797563 12.85888672 9.48364258 C10.07349601 9.48048123 7.28916563 9.50394053 4.50390625 9.52929688 C2.74218885 9.53156961 0.98046857 9.53227349 -0.78125 9.53125 C-1.61773071 9.54045975 -2.45421143 9.54966949 -3.31604004 9.55915833 C-5.66210938 9.5402832 -5.66210938 9.5402832 -9.4375 9.16796875 C-11.4375 6.16796875 -11.4375 6.16796875 -11.1875 3.54296875 C-10.94 2.75921875 -10.6925 1.97546875 -10.4375 1.16796875 C-7.1771056 -0.46222845 -3.5828944 0.00489454 0 0 Z " fill="#FF4F5B" transform="translate(188.4375,127.83203125)"/>
<path d="M0 0 C1.2219104 0.00607269 1.2219104 0.00607269 2.46850586 0.01226807 C3.30438232 0.01035461 4.14025879 0.00844116 5.00146484 0.00646973 C6.77010397 0.00510771 8.53875309 0.0088053 10.30737305 0.01715088 C13.02016579 0.02785031 15.7322963 0.01725631 18.44506836 0.00445557 C20.16121566 0.00577716 21.87736255 0.00833955 23.59350586 0.01226807 C24.40811279 0.0082196 25.22271973 0.00417114 26.06201172 0 C31.80108658 0.04797379 31.80108658 0.04797379 34.03100586 2.27789307 C33.78100586 5.34039307 33.78100586 5.34039307 33.03100586 8.27789307 C29.8863079 9.85024204 26.51883551 9.44085712 23.06616211 9.44586182 C22.27704941 9.44919022 21.48793671 9.45251862 20.6749115 9.45594788 C19.00463444 9.46101404 17.33434724 9.4633563 15.6640625 9.4631958 C13.10717101 9.46538139 10.55071154 9.48353753 7.99389648 9.50250244 C6.37215317 9.50543659 4.7504078 9.50742124 3.12866211 9.50836182 C1.98011497 9.51914009 1.98011497 9.51914009 0.80836487 9.53013611 C-2.99227188 9.51376064 -4.72812749 9.43847083 -7.96899414 7.27789307 C-8.28149414 4.77789307 -8.28149414 4.77789307 -7.96899414 2.27789307 C-5.36593522 -0.32516585 -3.54620875 0.02964329 0 0 Z " fill="#FF4F5B" transform="translate(124.968994140625,261.72210693359375)"/>
<path d="M0 0 C0.76313004 -0.0066568 1.52626007 -0.0133136 2.31251526 -0.02017212 C3.92552278 -0.03029057 5.5385721 -0.03498939 7.15161133 -0.03466797 C9.61675091 -0.03904094 12.08009912 -0.07536469 14.54492188 -0.11328125 C16.11327514 -0.11914972 17.68163689 -0.12311891 19.25 -0.125 C20.35328896 -0.14655655 20.35328896 -0.14655655 21.47886658 -0.16854858 C24.98458067 -0.13731899 26.86221195 0.08720436 29.69555664 2.22802734 C31.19140625 4.3359375 31.19140625 4.3359375 31.06640625 6.5234375 C30.19140625 8.3359375 30.19140625 8.3359375 28.19140625 9.3359375 C25.44332078 9.4470788 22.72133756 9.5000477 19.97265625 9.50390625 C18.75213562 9.50889885 18.75213562 9.50889885 17.50695801 9.51399231 C15.78540615 9.51905825 14.06384446 9.52140074 12.34228516 9.52124023 C9.70198502 9.52342873 7.06210128 9.54159317 4.421875 9.56054688 C2.75130352 9.56348041 1.08073004 9.56546547 -0.58984375 9.56640625 C-1.3825769 9.57359177 -2.17531006 9.58077728 -2.99206543 9.58818054 C-8.57976693 9.56476432 -8.57976693 9.56476432 -10.80859375 7.3359375 C-11.12109375 4.8359375 -11.12109375 4.8359375 -10.80859375 2.3359375 C-7.12213546 -0.12170136 -4.26909509 0.01288251 0 0 Z " fill="#FF4F5B" transform="translate(44.80859375,285.6640625)"/>
<path d="M0 0 C1.24910156 -0.01836914 1.24910156 -0.01836914 2.5234375 -0.03710938 C3.71839844 -0.04000977 3.71839844 -0.04000977 4.9375 -0.04296875 C6.03384766 -0.04913208 6.03384766 -0.04913208 7.15234375 -0.05541992 C9 0.1875 9 0.1875 11 2.1875 C10.75 4.75 10.75 4.75 10 7.1875 C6.85597519 8.7595124 3.51052603 8.37196744 0.0625 8.375 C-0.66646484 8.38724609 -1.39542969 8.39949219 -2.14648438 8.41210938 C-5.9713391 8.42262685 -7.74356564 8.35845624 -11 6.1875 C-11.1875 3.5625 -11.1875 3.5625 -11 1.1875 C-7.58173253 -0.52163373 -3.76645237 0.00291521 0 0 Z " fill="#FF4F5B" transform="translate(56,300.8125)"/>
<path d="M0 0 C1.39895508 -0.01836914 1.39895508 -0.01836914 2.82617188 -0.03710938 C4.16325195 -0.04000977 4.16325195 -0.04000977 5.52734375 -0.04296875 C6.348396 -0.04707764 7.16944824 -0.05118652 8.01538086 -0.05541992 C10.0625 0.1875 10.0625 0.1875 12.0625 2.1875 C11.6875 4.8125 11.6875 4.8125 11.0625 7.1875 C7.60423658 7.24539006 4.14609707 7.28105821 0.6875 7.3125 C-0.29734375 7.32925781 -1.2821875 7.34601563 -2.296875 7.36328125 C-3.23789062 7.36972656 -4.17890625 7.37617188 -5.1484375 7.3828125 C-6.45240479 7.39852295 -6.45240479 7.39852295 -7.78271484 7.41455078 C-9.9375 7.1875 -9.9375 7.1875 -11.9375 5.1875 C-10.88648176 -1.74922037 -5.90844785 0.00406638 0 0 Z " fill="#FF4F5B" transform="translate(41.9375,183.8125)"/>
<path d="M0 0 C0.77915771 0.00410889 1.55831543 0.00821777 2.36108398 0.01245117 C3.20735352 0.01438477 4.05362305 0.01631836 4.92553711 0.01831055 C5.81047852 0.03055664 6.69541992 0.04280273 7.60717773 0.05541992 C8.49598633 0.05606445 9.38479492 0.05670898 10.30053711 0.05737305 C16.90446676 0.10270895 16.90446676 0.10270895 18.04467773 1.24291992 C18.16967773 3.74291992 18.16967773 3.74291992 18.04467773 6.24291992 C17.04467773 7.24291992 17.04467773 7.24291992 15.18701172 7.35644531 C14.39625244 7.3512085 13.60549316 7.34597168 12.79077148 7.34057617 C11.93676758 7.33735352 11.08276367 7.33413086 10.20288086 7.33081055 C9.30504883 7.32243164 8.4072168 7.31405273 7.48217773 7.30541992 C6.58047852 7.3009082 5.6787793 7.29639648 4.74975586 7.29174805 C2.5146646 7.27992217 0.27970337 7.26344212 -1.95532227 7.24291992 C-2.61532227 5.59291992 -3.27532227 3.94291992 -3.95532227 2.24291992 C-1.95532227 0.24291992 -1.95532227 0.24291992 0 0 Z " fill="#FF4F5B" transform="translate(236.955322265625,246.757080078125)"/>
</svg>
